<svg width="19" height="16" viewBox="0 0 19 16" fill="none" xmlns="http://www.w3.org/2000/svg">
<path d="M11.8779 1.43366L17.8344 11.3546C18.6904 12.7795 18.2699 14.6542 16.8948 15.5413C16.4335 15.8408 15.8954 16.0001 15.3455 16H3.43158C1.8129 16 0.5 14.64 0.5 12.9609C0.5 12.3929 0.653779 11.8373 0.94267 11.3546L6.90005 1.43366C7.75517 0.00876306 9.56318 -0.427685 10.9383 0.459433C11.3188 0.704768 11.6405 1.0381 11.8779 1.43366ZM9.90452 2.17945C9.7957 2.10945 9.67382 2.06224 9.54624 2.04067C9.41866 2.0191 9.28804 2.02361 9.16226 2.05393C9.03647 2.08426 8.91814 2.13977 8.81441 2.2171C8.71068 2.29444 8.6237 2.392 8.55873 2.50389L2.60224 12.4266C2.50548 12.5883 2.45448 12.7733 2.45468 12.9618C2.45468 13.5218 2.89202 13.9751 3.43247 13.9751H15.3446C15.5277 13.9751 15.7063 13.9218 15.861 13.8222C16.083 13.6747 16.2394 13.4473 16.2979 13.1874C16.3563 12.9274 16.3123 12.6549 16.1748 12.4266L10.2183 2.50389C10.1407 2.37285 10.0335 2.26175 9.90541 2.17945H9.90452ZM9.38896 12.4444C9.15321 12.4444 8.92711 12.3508 8.76041 12.1841C8.59371 12.0174 8.50006 11.7913 8.50006 11.5555C8.50006 11.3198 8.59371 11.0937 8.76041 10.927C8.92711 10.7603 9.15321 10.6666 9.38896 10.6666C9.62471 10.6666 9.8508 10.7603 10.0175 10.927C10.1842 11.0937 10.2779 11.3198 10.2779 11.5555C10.2779 11.7913 10.1842 12.0174 10.0175 12.1841C9.8508 12.3508 9.62471 12.4444 9.38896 12.4444ZM9.38896 4.44435C9.62471 4.44435 9.8508 4.538 10.0175 4.70471C10.1842 4.87141 10.2779 5.0975 10.2779 5.33325V8.88883C10.2779 9.12458 10.1842 9.35068 10.0175 9.51738C9.8508 9.68408 9.62471 9.77773 9.38896 9.77773C9.15321 9.77773 8.92711 9.68408 8.76041 9.51738C8.59371 9.35068 8.50006 9.12458 8.50006 8.88883V5.33325C8.50006 5.0975 8.59371 4.87141 8.76041 4.70471C8.92711 4.538 9.15321 4.44435 9.38896 4.44435Z" fill="#854700"/>
</svg>
