<svg width="37" height="36" viewBox="0 0 37 36" fill="none" xmlns="http://www.w3.org/2000/svg">
<path d="M20.8779 11.4337L26.8344 21.3546C27.6904 22.7795 27.2699 24.6542 25.8948 25.5413C25.4335 25.8408 24.8954 26.0001 24.3455 26H12.4316C10.8129 26 9.5 24.64 9.5 22.9609C9.5 22.3929 9.65378 21.8373 9.94267 21.3546L15.9001 11.4337C16.7552 10.0088 18.5632 9.57232 19.9383 10.4594C20.3188 10.7048 20.6405 11.0381 20.8779 11.4337ZM18.9045 12.1794C18.7957 12.1095 18.6738 12.0622 18.5462 12.0407C18.4187 12.0191 18.288 12.0236 18.1623 12.0539C18.0365 12.0843 17.9181 12.1398 17.8144 12.2171C17.7107 12.2944 17.6237 12.392 17.5587 12.5039L11.6022 22.4266C11.5055 22.5883 11.4545 22.7733 11.4547 22.9618C11.4547 23.5218 11.892 23.9751 12.4325 23.9751H24.3446C24.5277 23.9751 24.7063 23.9218 24.861 23.8222C25.083 23.6747 25.2394 23.4473 25.2979 23.1874C25.3563 22.9274 25.3123 22.6549 25.1748 22.4266L19.2183 12.5039C19.1407 12.3729 19.0335 12.2618 18.9054 12.1794H18.9045ZM18.389 22.4444C18.1532 22.4444 17.9271 22.3508 17.7604 22.1841C17.5937 22.0174 17.5001 21.7913 17.5001 21.5555C17.5001 21.3198 17.5937 21.0937 17.7604 20.927C17.9271 20.7603 18.1532 20.6666 18.389 20.6666C18.6247 20.6666 18.8508 20.7603 19.0175 20.927C19.1842 21.0937 19.2779 21.3198 19.2779 21.5555C19.2779 21.7913 19.1842 22.0174 19.0175 22.1841C18.8508 22.3508 18.6247 22.4444 18.389 22.4444ZM18.389 14.4444C18.6247 14.4444 18.8508 14.538 19.0175 14.7047C19.1842 14.8714 19.2779 15.0975 19.2779 15.3332V18.8888C19.2779 19.1246 19.1842 19.3507 19.0175 19.5174C18.8508 19.6841 18.6247 19.7777 18.389 19.7777C18.1532 19.7777 17.9271 19.6841 17.7604 19.5174C17.5937 19.3507 17.5001 19.1246 17.5001 18.8888V15.3332C17.5001 15.0975 17.5937 14.8714 17.7604 14.7047C17.9271 14.538 18.1532 14.4444 18.389 14.4444Z" fill="#854700"/>
</svg>
