<svg width="7" height="12" viewBox="0 0 7 12" fill="none" xmlns="http://www.w3.org/2000/svg">
<path d="M1.1574 0.789766C1.0871 0.859488 1.0313 0.942438 0.993227 1.03383C0.95515 1.12523 0.935547 1.22326 0.935547 1.32227C0.935547 1.42127 0.95515 1.5193 0.993227 1.6107C1.0313 1.70209 1.0871 1.78504 1.1574 1.85476L4.5924 5.28977C4.66269 5.35949 4.71849 5.44244 4.75656 5.53383C4.79464 5.62523 4.81424 5.72326 4.81424 5.82227C4.81424 5.92127 4.79464 6.0193 4.75656 6.1107C4.71849 6.20209 4.66269 6.28504 4.5924 6.35477L1.1574 9.78977C1.0871 9.85949 1.0313 9.94244 0.993227 10.0338C0.95515 10.1252 0.935547 10.2233 0.935547 10.3223C0.935547 10.4213 0.95515 10.5193 0.993227 10.6107C1.0313 10.7021 1.0871 10.785 1.1574 10.8548C1.29792 10.9945 1.48801 11.0729 1.68615 11.0729C1.88428 11.0729 2.07437 10.9945 2.2149 10.8548L5.6574 7.41227C6.07875 6.99039 6.31542 6.41852 6.31542 5.82227C6.31542 5.22601 6.07875 4.65414 5.6574 4.23227L2.2149 0.789766C2.07437 0.650078 1.88428 0.571671 1.68615 0.571671C1.48801 0.571671 1.29792 0.650078 1.1574 0.789766Z" fill="#CE192D"/>
</svg>
