<svg width="18" height="18" viewBox="0 0 18 18" fill="none" xmlns="http://www.w3.org/2000/svg">
<path d="M14.0326 6.1575C13.9629 6.08721 13.8799 6.03141 13.7885 5.99333C13.6971 5.95526 13.5991 5.93565 13.5001 5.93565C13.4011 5.93565 13.3031 5.95526 13.2117 5.99333C13.1203 6.03141 13.0373 6.08721 12.9676 6.1575L9.53261 9.5925C9.46288 9.6628 9.37993 9.71859 9.28854 9.75667C9.19714 9.79475 9.09911 9.81435 9.00011 9.81435C8.9011 9.81435 8.80307 9.79475 8.71167 9.75667C8.62028 9.71859 8.53733 9.6628 8.46761 9.5925L5.03261 6.1575C4.96288 6.08721 4.87993 6.03141 4.78854 5.99333C4.69714 5.95526 4.59912 5.93565 4.50011 5.93565C4.4011 5.93565 4.30307 5.95526 4.21167 5.99333C4.12028 6.03141 4.03733 6.08721 3.96761 6.1575C3.82792 6.29802 3.74951 6.48811 3.74951 6.68625C3.74951 6.88439 3.82792 7.07448 3.96761 7.215L7.41011 10.6575C7.83198 11.0789 8.40385 11.3155 9.00011 11.3155C9.59636 11.3155 10.1682 11.0789 10.5901 10.6575L14.0326 7.215C14.1723 7.07448 14.2507 6.88439 14.2507 6.68625C14.2507 6.48811 14.1723 6.29802 14.0326 6.1575Z" fill="#9B9B9B"/>
</svg>
