<svg width="18" height="18" viewBox="0 0 18 18" fill="none" xmlns="http://www.w3.org/2000/svg">
<path d="M14.0326 6.15749C13.9629 6.08719 13.8799 6.03139 13.7885 5.99332C13.6971 5.95524 13.5991 5.93564 13.5001 5.93564C13.4011 5.93564 13.3031 5.95524 13.2117 5.99332C13.1203 6.03139 13.0373 6.08719 12.9676 6.15749L9.53261 9.59249C9.46288 9.66278 9.37993 9.71858 9.28854 9.75666C9.19714 9.79473 9.09911 9.81434 9.00011 9.81434C8.9011 9.81434 8.80307 9.79473 8.71167 9.75666C8.62028 9.71858 8.53733 9.66278 8.46761 9.59249L5.03261 6.15749C4.96288 6.08719 4.87993 6.03139 4.78854 5.99332C4.69714 5.95524 4.59912 5.93564 4.50011 5.93564C4.4011 5.93564 4.30307 5.95524 4.21167 5.99332C4.12028 6.03139 4.03733 6.08719 3.96761 6.15749C3.82792 6.29801 3.74951 6.4881 3.74951 6.68624C3.74951 6.88438 3.82792 7.07447 3.96761 7.21499L7.41011 10.6575C7.83198 11.0788 8.40385 11.3155 9.00011 11.3155C9.59636 11.3155 10.1682 11.0788 10.5901 10.6575L14.0326 7.21499C14.1723 7.07447 14.2507 6.88438 14.2507 6.68624C14.2507 6.4881 14.1723 6.29801 14.0326 6.15749Z" fill="#CDD5DF"/>
</svg>
