<svg width="38" height="38" viewBox="0 0 38 38" fill="none" xmlns="http://www.w3.org/2000/svg">
<path d="M25 20.5V22.6C25 23.4401 25 23.8601 24.8365 24.181C24.6927 24.4632 
24.4632 24.6927 24.181 24.8365C23.8601 25 23.4401 25 22.6 25H20.5M17.5 
13H15.4C14.5599 13 14.1399 13 13.819 13.1635C13.5368 13.3073 13.3073 
13.5368 13.1635 13.819C13 14.1399 13 14.5599 13 15.4V17.5M21.25 
16.75L25.75 12.25M25.75 12.25H21.25M25.75 12.25V16.75M16.75 
21.25L12.25 25.75M12.25 25.75H16.75M12.25 25.75L12.25 21.25" stroke="currentColor" stroke-width="2" stroke-linecap="round" stroke-linejoin="round"/>
</svg>
