<svg width="18" height="19" viewBox="0 0 18 19" fill="none" xmlns="http://www.w3.org/2000/svg">
<path d="M6.1574 4.78977C6.0871 4.85949 6.0313 4.94244 5.99323 5.03383C5.95515 5.12523 5.93555 5.22326 5.93555 5.32227C5.93555 5.42127 5.95515 5.5193 5.99323 5.6107C6.0313 5.70209 6.0871 5.78504 6.1574 5.85476L9.5924 9.28977C9.66269 9.35949 9.71849 9.44244 9.75656 9.53383C9.79464 9.62523 9.81424 9.72326 9.81424 9.82227C9.81424 9.92127 9.79464 10.0193 9.75656 10.1107C9.71849 10.2021 9.66269 10.285 9.5924 10.3548L6.1574 13.7898C6.0871 13.8595 6.0313 13.9424 5.99323 14.0338C5.95515 14.1252 5.93555 14.2233 5.93555 14.3223C5.93555 14.4213 5.95515 14.5193 5.99323 14.6107C6.0313 14.7021 6.0871 14.785 6.1574 14.8548C6.29792 14.9945 6.48801 15.0729 6.68615 15.0729C6.88428 15.0729 7.07437 14.9945 7.2149 14.8548L10.6574 11.4123C11.0787 10.9904 11.3154 10.4185 11.3154 9.82227C11.3154 9.22601 11.0787 8.65414 10.6574 8.23227L7.2149 4.78977C7.07437 4.65008 6.88428 4.57167 6.68615 4.57167C6.48801 4.57167 6.29792 4.65008 6.1574 4.78977Z" fill="#CE192D"/>
</svg>
