<svg width="12" height="7" viewBox="0 0 12 7" fill="none" xmlns="http://www.w3.org/2000/svg">
<path d="M11.0326 1.1575C10.9629 1.08721 10.8799 1.03141 10.7885 0.993334C10.6971 0.955257 10.5991 0.935654 10.5001 0.935654C10.4011 0.935654 10.3031 0.955257 10.2117 0.993334C10.1203 1.03141 10.0373 1.08721 9.96761 1.1575L6.53261 4.5925C6.46288 4.6628 6.37993 4.71859 6.28854 4.75667C6.19714 4.79475 6.09911 4.81435 6.00011 4.81435C5.9011 4.81435 5.80307 4.79475 5.71167 4.75667C5.62028 4.71859 5.53733 4.6628 5.46761 4.5925L2.03261 1.1575C1.96288 1.08721 1.87993 1.03141 1.78854 0.993334C1.69714 0.955257 1.59912 0.935654 1.50011 0.935654C1.4011 0.935654 1.30307 0.955257 1.21167 0.993334C1.12028 1.03141 1.03733 1.08721 0.967606 1.1575C0.827918 1.29802 0.749512 1.48811 0.749512 1.68625C0.749512 1.88439 0.827918 2.07448 0.967606 2.215L4.41011 5.6575C4.83198 6.07885 5.40385 6.31552 6.00011 6.31552C6.59636 6.31552 7.16823 6.07885 7.59011 5.6575L11.0326 2.215C11.1723 2.07448 11.2507 1.88439 11.2507 1.68625C11.2507 1.48811 11.1723 1.29802 11.0326 1.1575Z" fill="#23202A"/>
</svg>
