<svg width="18" height="18" viewBox="0 0 18 18" fill="none" xmlns="http://www.w3.org/2000/svg">
<path d="M11.25 13.5C11.25 14.7426 12.2574 15.75 13.5 15.75C14.7426 15.75 15.75 14.7426 15.75 13.5C15.75 12.2574 14.7426 11.25 13.5 11.25C12.2574 11.25 11.25 12.2574 11.25 13.5ZM11.25 13.5C9.45979 13.5 7.7429 12.7888 6.47703 11.523C5.21116 10.2571 4.5 8.54021 4.5 6.75M4.5 6.75C5.74264 6.75 6.75 5.74264 6.75 4.5C6.75 3.25736 5.74264 2.25 4.5 2.25C3.25736 2.25 2.25 3.25736 2.25 4.5C2.25 5.74264 3.25736 6.75 4.5 6.75ZM4.5 6.75V15.75" stroke="black" stroke-width="1.5" stroke-linecap="round" stroke-linejoin="round"/>
</svg>
