<svg width="38" height="38" viewBox="0 0 38 38" fill="none" xmlns="http://www.w3.org/2000/svg">
<path d="M20.6461 18.9H14.9604V16.4447C15.7307 16.2652 16.4125 15.816 16.8815 15.1768C17.3665 
14.5156 17.5893 13.6982 17.5069 12.8823C17.4245 12.0665 17.0427 11.3102 16.4353 10.7594C15.8278 
10.2086 15.0378 9.90239 14.2178 9.9L14.2176 9.9C13.3957 9.89918 12.6028 10.2038 11.9929 10.7547C11.3829 
11.3056 10.9994 12.0635 10.9168 12.8812C10.8342 13.699 11.0584 14.5182 11.5459 15.18C12.0171 15.8197 
12.7019 16.2681 13.4747 16.445V21.5553C12.7043 21.7348 12.0225 22.184 11.5536 22.8232C11.0685 23.4844 
10.8457 24.3018 10.9281 25.1177C11.0105 25.9335 11.3923 26.6898 11.9998 27.2406C12.6072 27.7914 13.3972 
28.0976 14.2172 28.1H14.2174C15.0393 28.1008 15.8322 27.7962 16.4422 27.2453C17.0522 26.6944 17.4357 
25.9365 17.5183 25.1188C17.6009 24.301 17.3767 23.4818 16.8892 22.82C16.4179 22.1803 15.7331 21.7319 
14.9604 21.555V20.3857H20.6461C21.0813 20.3857 21.5123 20.3 21.9144 20.1334C22.3165 19.9669 22.6819 
19.7227 22.9896 19.415C23.2974 19.1072 23.5415 18.7419 23.7081 18.3398C23.8747 17.9376 23.9604 17.5067 
23.9604 17.0714V16.4447C24.7307 16.2652 25.4125 15.816 25.8815 15.1768C26.3665 14.5156 26.5893 13.6982 
26.5069 12.8823C26.4245 12.0665 26.0427 11.3102 25.4353 10.7594C24.8278 10.2086 24.0378 9.90239 23.2178 
9.9L23.2176 9.9C22.3957 9.89918 21.6028 10.2038 20.9929 10.7547C20.3829 11.3056 19.9994 12.0635 19.9168 
12.8812C19.8342 13.699 20.0584 14.5182 20.5459 15.18C21.0171 15.8197 21.7019 16.2681 22.4747 16.445V17.0714C22.4747 
17.5564 22.282 18.0215 21.9391 18.3644C21.5962 18.7073 21.1311 18.9 20.6461 18.9ZM14.2175 15.0429C13.9774 
15.0429 13.7396 14.9956 13.5178 14.9037C13.2959 14.8118 13.0943 14.6771 12.9245 14.5073C12.7547 14.3375 
12.62 14.1359 12.5281 13.9141C12.4362 13.6922 12.389 13.4544 12.389 13.2143C12.389 12.9742 12.4362 12.7364 
12.5281 12.5145C12.62 12.2927 12.7547 12.0911 12.9245 11.9213C13.0943 11.7515 13.2959 11.6168 13.5178 
11.5249C13.7396 11.433 13.9774 11.3857 14.2175 11.3857C14.7025 11.3857 15.1676 11.5784 15.5105 11.9213C15.8534 
12.2642 16.0461 12.7293 16.0461 13.2143C16.0461 13.6993 15.8534 14.1644 15.5105 14.5073C15.1676 14.8502 14.7025 
15.0429 14.2175 15.0429ZM23.2175 15.0429C22.9774 15.0429 22.7396 14.9956 22.5178 14.9037C22.2959 14.8118 22.0943 
14.6771 21.9245 14.5073C21.7547 14.3375 21.62 14.1359 21.5281 13.9141C21.4362 13.6922 21.389 13.4544 21.389 13.2143C21.389 
12.9742 21.4362 12.7364 21.5281 12.5145C21.62 12.2927 21.7547 12.0911 21.9245 11.9213C22.0943 11.7515 22.2959 11.6168 22.5178 
11.5249C22.7396 11.433 22.9774 11.3857 23.2175 11.3857C23.7025 11.3857 24.1676 11.5784 24.5105 11.9213C24.8534 12.2642 25.0461 
12.7293 25.0461 13.2143C25.0461 13.6993 24.8534 14.1644 24.5105 14.5073C24.1676 14.8502 23.7025 15.0429 23.2175 15.0429ZM16.0461 
24.7857C16.0461 25.2707 15.8534 25.7358 15.5105 26.0787C15.1676 26.4216 14.7025 26.6143 14.2175 26.6143C13.7326 26.6143 13.2675 
26.4216 12.9245 26.0787C12.5816 25.7358 12.389 25.2707 12.389 24.7857C12.389 24.3007 12.5816 23.8356 12.9245 23.4927C13.2675 
23.1498 13.7326 22.9571 14.2175 22.9571C14.7025 22.9571 15.1676 23.1498 15.5105 23.4927C15.8534 23.8356 16.0461 24.3007 
16.0461 24.7857Z" fill="currentColor" stroke="currentColor" stroke-width="0.2"/>
</svg>
