<svg width="38" height="38" viewBox="0 0 38 38" fill="none" xmlns="http://www.w3.org/2000/svg">
<path d="M12.25 17.9238C12.25 17.493 12.25 17.2776 12.3055 17.0793C12.3547 16.9036 12.4355 16.7383 12.544 16.5916C12.6665 16.426 12.8365 16.2938 13.1765 16.0293L18.2633 12.073C18.5268 11.8681 18.6585 11.7656 18.804 11.7262C18.9324 11.6914 19.0676 11.6914 19.196 11.7262C19.3415 11.7656 19.4732 11.8681 19.7367 12.073L24.8235 16.0293C25.1635 16.2938 25.3335 16.426 25.456 16.5916C25.5645 16.7383 25.6453 16.9036 25.6945 17.0793C25.75 17.2776 25.75 17.493 25.75 17.9238V23.35C25.75 24.1901 25.75 24.6101 25.5865 24.931C25.4427 25.2132 25.2132 25.4427 24.931 25.5865C24.6101 25.75 24.1901 25.75 23.35 25.75H14.65C13.8099 25.75 13.3899 25.75 13.069 25.5865C12.7868 25.4427 12.5573 25.2132 12.4135 24.931C12.25 24.6101 12.25 24.1901 12.25 23.35V17.9238Z" stroke="#23202A" stroke-width="1.5" stroke-linecap="round" stroke-linejoin="round"/>
</svg>
