<svg width="31" height="31" viewBox="0 0 31 31" fill="none" xmlns="http://www.w3.org/2000/svg">
<rect x="0.939046" y="1.03338" width="29.2555" height="29.2555" rx="14.6278" stroke="#23202A" stroke-opacity="0.1" stroke-width="0.79069"/>
<path d="M21.2598 21.3541V17.184C21.2598 15.1345 20.8186 13.569 18.4275 13.569C17.2747 13.569 16.5061 14.1952 16.193 14.793H16.1646V13.754H13.9016V21.3541H16.2642V17.5825C16.2642 16.5862 16.4492 15.6327 17.6732 15.6327C18.883 15.6327 18.8972 16.757 18.8972 17.6394V21.3399H21.2598V21.3541Z" fill="#CE192D"/>
<path d="M10.0588 13.7541H12.4214V21.3542H10.0588V13.7541Z" fill="#CE192D"/>
<path d="M11.2401 9.96811C10.4858 9.96811 9.87378 10.5801 9.87378 11.3344C9.87378 12.0887 10.4858 12.715 11.2401 12.715C11.9944 12.715 12.6064 12.0887 12.6064 11.3344C12.6064 10.5801 11.9944 9.96811 11.2401 9.96811Z" fill="#CE192D"/>
</svg>
