<svg width="31" height="31" viewBox="0 0 31 31" fill="none" xmlns="http://www.w3.org/2000/svg">
<rect x="0.985433" y="1.03457" width="29.2531" height="29.2531" rx="14.6266" stroke="#23202A" stroke-opacity="0.1" stroke-width="0.79069"/>
<g clip-path="url(#clip0_702_353)">
<path d="M22.7131 12.7298C22.6797 11.9737 22.5574 11.4539 22.3823 11.0034C22.2016 10.5253 21.9236 10.0973 21.5594 9.74144C21.2036 9.38006 20.7727 9.09926 20.3001 8.92139C19.8471 8.74624 19.33 8.62397 18.5739 8.59063C17.8122 8.55447 17.5704 8.54611 15.6384 8.54611C13.7064 8.54611 13.4645 8.55447 12.7056 8.58781C11.9495 8.62115 11.4297 8.74352 10.9794 8.91857C10.5012 9.09926 10.0731 9.37724 9.7173 9.74144C9.35592 10.0973 9.07523 10.5282 8.89725 11.0007C8.7221 11.4539 8.59983 11.9709 8.56649 12.7269C8.53033 13.4887 8.52197 13.7305 8.52197 15.6625C8.52197 17.5945 8.53033 17.8363 8.56367 18.5952C8.59701 19.3513 8.71938 19.8711 8.89454 20.3216C9.07523 20.7997 9.35592 21.2277 9.7173 21.5836C10.0731 21.9449 10.504 22.2257 10.9766 22.4036C11.4297 22.5788 11.9467 22.701 12.7029 22.7344C13.4617 22.7678 13.7037 22.7761 15.6356 22.7761C17.5676 22.7761 17.8095 22.7678 18.5684 22.7344C19.3245 22.701 19.8443 22.5788 20.2946 22.4036C21.2509 22.0339 22.007 21.2778 22.3768 20.3216C22.5518 19.8684 22.6742 19.3513 22.7075 18.5952C22.7409 17.8363 22.7492 17.5945 22.7492 15.6625C22.7492 13.7305 22.7464 13.4887 22.7131 12.7298ZM21.4316 18.5396C21.401 19.2346 21.2843 19.6099 21.187 19.8601C20.9479 20.48 20.4558 20.972 19.8359 21.2111C19.5857 21.3084 19.2077 21.4251 18.5155 21.4556C17.7649 21.4891 17.5398 21.4973 15.6412 21.4973C13.7425 21.4973 13.5146 21.4891 12.7668 21.4556C12.0718 21.4251 11.6965 21.3084 11.4463 21.2111C11.1378 21.0971 10.857 20.9164 10.6291 20.6801C10.3928 20.4494 10.2121 20.1714 10.0981 19.8629C10.0008 19.6127 9.88409 19.2346 9.85358 18.5425C9.82014 17.7919 9.81188 17.5667 9.81188 15.668C9.81188 13.7694 9.82014 13.5415 9.85358 12.7937C9.88409 12.0988 10.0008 11.7235 10.0981 11.4733C10.2121 11.1647 10.3928 10.884 10.6319 10.656C10.8626 10.4197 11.1406 10.239 11.4492 10.1251C11.6994 10.0278 12.0775 9.91106 12.7696 9.88044C13.5201 9.8471 13.7454 9.83874 15.6439 9.83874C17.5454 9.83874 17.7705 9.8471 18.5183 9.88044C19.2133 9.91106 19.5886 10.0278 19.8387 10.1251C20.1472 10.239 20.428 10.4197 20.656 10.656C20.8923 10.8867 21.073 11.1647 21.187 11.4733C21.2843 11.7235 21.401 12.1015 21.4316 12.7937C21.465 13.5443 21.4733 13.7694 21.4733 15.668C21.4733 17.5667 21.465 17.7891 21.4316 18.5396Z" fill="#CE192D"/>
<path d="M15.6384 12.007C13.6203 12.007 11.9829 13.6443 11.9829 15.6625C11.9829 17.6807 13.6203 19.318 15.6384 19.318C17.6566 19.318 19.2939 17.6807 19.2939 15.6625C19.2939 13.6443 17.6566 12.007 15.6384 12.007ZM15.6384 18.0337C14.3292 18.0337 13.2672 16.9719 13.2672 15.6625C13.2672 14.3532 14.3292 13.2913 15.6384 13.2913C16.9477 13.2913 18.0096 14.3532 18.0096 15.6625C18.0096 16.9719 16.9477 18.0337 15.6384 18.0337Z" fill="#CE192D"/>
<path d="M20.2921 11.8625C20.2921 12.3338 19.91 12.7159 19.4386 12.7159C18.9673 12.7159 18.5852 12.3338 18.5852 11.8625C18.5852 11.3911 18.9673 11.0091 19.4386 11.0091C19.91 11.0091 20.2921 11.3911 20.2921 11.8625Z" fill="#CE192D"/>
</g>
<defs>
<clipPath id="clip0_702_353">
<rect width="14.23" height="14.23" fill="white" transform="translate(8.49707 8.54611)"/>
</clipPath>
</defs>
</svg>
