<svg width="36" height="36" viewBox="0 0 36 36" fill="none" xmlns="http://www.w3.org/2000/svg">
<path d="M18 36C27.9411 36 36 27.9411 36 18C36 8.05887 27.9411 0 18 0C8.05887 0 0 8.05887 0 18C0 27.9411 8.05887 36 18 36Z" fill="#23202A"/>
<path d="M20.6145 21.7957L20.6138 21.7963C19.5359 22.8742 19.5359 24.6219 20.6138 25.6998L25.0696 30.1555C26.1475 31.2335 27.8952 31.2335 28.9731 30.1555L28.9737 30.1549C30.0516 29.077 30.0516 27.3293 28.9737 26.2514L24.518 21.7957C23.44 20.7178 21.6924 20.7178 20.6145 21.7957Z" fill="white"/>
<path d="M26.7404 29.4338C27.5872 29.4338 28.2737 28.7474 28.2737 27.9005C28.2737 27.0537 27.5872 26.3672 26.7404 26.3672C25.8935 26.3672 25.207 27.0537 25.207 27.9005C25.207 28.7474 25.8935 29.4338 26.7404 29.4338Z" fill="#CE202E"/>
</svg>
