<svg width="32" height="32" viewBox="0 0 32 32" fill="none" xmlns="http://www.w3.org/2000/svg">
<rect x="1.0921" y="0.414369" width="30.4935" height="30.4935" rx="15.2468" stroke="#23202A" stroke-opacity="0.1" stroke-width="0.828738"/>
<path d="M20.9861 12.3173L21.869 11.469V11.2832H18.8115L16.6325 16.7329L14.1539 11.2832H10.948V11.469L11.9792 12.7162C12.08 12.8084 12.1319 12.9438 12.1189 13.0791V17.9801C12.1506 18.1572 12.0944 18.3373 11.9706 18.4654L10.8083 19.8811V20.064H14.1006V19.8783L12.9398 18.4669C12.8776 18.4037 12.8308 18.3271 12.8031 18.2429C12.7754 18.1587 12.7675 18.0693 12.78 17.9815V13.7416L15.6704 20.0669H16.006L18.4917 13.7416V18.7808C18.4917 18.9133 18.4917 18.9407 18.4053 19.0286L17.511 19.897V20.0828H21.8488V19.897L20.9861 19.0487C20.9113 18.9911 20.8724 18.8946 20.8882 18.801V12.565C20.8807 12.5187 20.8859 12.4713 20.9031 12.4277C20.9204 12.3841 20.9491 12.346 20.9861 12.3173Z" fill="#CE192D"/>
</svg>
