<svg width="38" height="38" viewBox="0 0 38 38" fill="none" xmlns="http://www.w3.org/2000/svg">
<path d="M13.75 13.7422C13.75 13.0139 13.75 12.6497 13.9019 12.4489C14.0342 12.274 14.2364 12.1658 14.4553 12.1527C14.7066 12.1377 15.0096 12.3397 15.6156 12.7438L23.5023 18.0015C24.0031 18.3354 24.2535 18.5023 24.3407 18.7127C24.417 18.8966 24.417 19.1034 24.3407 19.2873C24.2535 19.4977 24.0031 19.6646 23.5023 19.9985L15.6156 25.2562C15.0096 25.6603 14.7066 25.8623 14.4553 25.8473C14.2364 25.8342 14.0342 25.726 13.9019 25.5511C13.75 25.3503 13.75 24.9862 13.75 24.2578V13.7422Z" stroke="#CE192D" stroke-width="1.5" stroke-linecap="round" stroke-linejoin="round"/>
</svg>
