<svg width="38" height="38" viewBox="0 0 38 38" fill="none" xmlns="http://www.w3.org/2000/svg">
<path d="M10 28L13.9375 24.0625M22.375 9.99997L18.4375 13.9375M28 15.625L24.0625 19.5625M23.4393 23.8026L24.6893 22.5525C25.2751 
21.9667 25.2751 21.017 24.6893 20.4312L17.5688 13.3106C16.983 12.7248 16.0333 12.7248 15.4475 13.3106L14.1974 14.5607C13.5709 15.1631 13.0708 
15.8844 12.7264 16.6824C12.382 17.4804 12.2002 18.3391 12.1917 19.2082C12.1832 20.0773 12.3481 20.9394 12.6768 21.744C13.0054 22.5486 13.4913 23.2796 
14.1058 23.8941C14.7204 24.5087 15.4514 24.9946 16.256 25.3232C17.0606 25.6519 17.9227 25.8168 18.7918 25.8082C19.6609 25.7997 20.5195 25.618 21.3175 
25.2736C22.1155 24.9292 22.8368 24.4291 23.4393 23.8026Z" stroke="currentColor" stroke-width="2.25" stroke-linecap="round" stroke-linejoin="round"/>
</svg>
