<svg width="18" height="18" viewBox="0 0 18 18" fill="none" xmlns="http://www.w3.org/2000/svg">
<path d="M3.75 3.74222C3.75 3.01385 3.75 2.64966 3.90187 2.44891C4.03417 2.27401 4.23639 2.16579 4.4553 2.15272C4.70658 2.13771 5.0096 2.33973 5.61564 2.74376L13.5023 8.00154C14.0031 8.33538 14.2535 8.5023 14.3407 8.71269C14.417 8.89663 14.417 9.10336 14.3407 9.2873C14.2535 9.49769 14.0031 9.66461 13.5023 9.99846L5.61564 15.2562C5.0096 15.6603 4.70658 15.8623 4.4553 15.8473C4.23639 15.8342 4.03417 15.726 3.90187 15.5511C3.75 15.3503 3.75 14.9861 3.75 14.2578V3.74222Z" stroke="#c1c1c1" stroke-width="1.5" stroke-linecap="round" stroke-linejoin="round"/>
</svg>
