<svg width="18" height="18" viewBox="0 0 18 18" fill="none" xmlns="http://www.w3.org/2000/svg">
<path d="M6.1574 3.96749C6.0871 4.03721 6.0313 4.12016 5.99323 4.21155C5.95515 4.30295 5.93555 4.40098 5.93555 4.49999C5.93555 4.59899 5.95515 4.69702 5.99323 4.78842C6.0313 4.87981 6.0871 4.96276 6.1574 5.03249L9.5924 8.46749C9.66269 8.53721 9.71849 8.62016 9.75656 8.71155C9.79464 8.80295 9.81424 8.90098 9.81424 8.99999C9.81424 9.09899 9.79464 9.19702 9.75656 9.28842C9.71849 9.37981 9.66269 9.46276 9.5924 9.53249L6.1574 12.9675C6.0871 13.0372 6.0313 13.1202 5.99323 13.2116C5.95515 13.3029 5.93555 13.401 5.93555 13.5C5.93555 13.599 5.95515 13.697 5.99323 13.7884C6.0313 13.8798 6.0871 13.9628 6.1574 14.0325C6.29792 14.1722 6.48801 14.2506 6.68615 14.2506C6.88428 14.2506 7.07437 14.1722 7.2149 14.0325L10.6574 10.59C11.0787 10.1681 11.3154 9.59624 11.3154 8.99999C11.3154 8.40373 11.0787 7.83186 10.6574 7.40999L7.2149 3.96749C7.07437 3.8278 6.88428 3.74939 6.68615 3.74939C6.48801 3.74939 6.29792 3.8278 6.1574 3.96749Z" fill="#23202A"/>
</svg>
