<svg width="38" height="38" viewBox="0 0 38 38" fill="none" xmlns="http://www.w3.org/2000/svg">
<path d="M23.125 21.625C23.125 22.4575 22.4575 23.125 21.625 23.125C20.7925 23.125 20.125 22.4575 20.125 21.625C20.125 20.7925 20.8 20.125 21.625 20.125C22.45 20.125 23.125 20.8 23.125 21.625ZM16.375 20.125C15.55 20.125 14.875 20.8 14.875 21.625C14.875 22.45 15.55 23.125 16.375 23.125C17.2 23.125 17.875 22.4575 17.875 21.625C17.875 20.7925 17.2075 20.125 16.375 20.125ZM27.25 21.25V23.5C27.25 23.9125 26.9125 24.25 26.5 24.25H25.75V25C25.75 25.8325 25.0825 26.5 24.25 26.5H13.75C13.3522 26.5 12.9706 26.342 12.6893 26.0607C12.408 25.7794 12.25 25.3978 12.25 25V24.25H11.5C11.0875 24.25 10.75 23.9125 10.75 23.5V21.25C10.75 20.8375 11.0875 20.5 11.5 20.5H12.25C12.25 17.5975 14.5975 15.25 17.5 15.25H18.25V14.2975C17.8 14.0425 17.5 13.555 17.5 13C17.5 12.175 18.175 11.5 19 11.5C19.825 11.5 20.5 12.175 20.5 13C20.5 13.555 20.2 14.0425 19.75 14.2975V15.25H20.5C23.4025 15.25 25.75 17.5975 25.75 20.5H26.5C26.9125 20.5 27.25 20.8375 27.25 21.25ZM25.75 22H24.25V20.5C24.25 18.43 22.57 16.75 20.5 16.75H17.5C15.43 16.75 13.75 18.43 13.75 20.5V22H12.25V22.75H13.75V25H24.25V22.75H25.75V22Z" fill="#BF202D"/>
</svg>
