<svg width="18" height="18" viewBox="0 0 18 18" fill="none" xmlns="http://www.w3.org/2000/svg">
<path d="M13.125 11.625C13.125 12.4575 12.4575 13.125 11.625 13.125C10.7925 13.125 10.125 12.4575 10.125 11.625C10.125 10.7925 10.8 10.125 11.625 10.125C12.45 10.125 13.125 10.8 13.125 11.625ZM6.375 10.125C5.55 10.125 4.875 10.8 4.875 11.625C4.875 12.45 5.55 13.125 6.375 13.125C7.2 13.125 7.875 12.4575 7.875 11.625C7.875 10.7925 7.2075 10.125 6.375 10.125ZM17.25 11.25V13.5C17.25 13.9125 16.9125 14.25 16.5 14.25H15.75V15C15.75 15.8325 15.0825 16.5 14.25 16.5H3.75C3.35218 16.5 2.97064 16.342 2.68934 16.0607C2.40804 15.7794 2.25 15.3978 2.25 15V14.25H1.5C1.0875 14.25 0.75 13.9125 0.75 13.5V11.25C0.75 10.8375 1.0875 10.5 1.5 10.5H2.25C2.25 7.5975 4.5975 5.25 7.5 5.25H8.25V4.2975C7.8 4.0425 7.5 3.555 7.5 3C7.5 2.175 8.175 1.5 9 1.5C9.825 1.5 10.5 2.175 10.5 3C10.5 3.555 10.2 4.0425 9.75 4.2975V5.25H10.5C13.4025 5.25 15.75 7.5975 15.75 10.5H16.5C16.9125 10.5 17.25 10.8375 17.25 11.25ZM15.75 12H14.25V10.5C14.25 8.43 12.57 6.75 10.5 6.75H7.5C5.43 6.75 3.75 8.43 3.75 10.5V12H2.25V12.75H3.75V15H14.25V12.75H15.75V12Z" fill="#BF202D"/>
</svg>
