<svg width="16" height="17" viewBox="0 0 16 17" fill="none" xmlns="http://www.w3.org/2000/svg">
<g clip-path="url(#clip0_960_156)">
<path fill-rule="evenodd" clip-rule="evenodd" d="M7.11592 12.7751C7.81677 12.7751 8.51077 12.6371 9.15827 12.3689C9.80578 12.1007 10.3941 11.7075 10.8897 11.212C11.3853 10.7164 11.7784 10.128 12.0466 9.48054C12.3148 8.83303 12.4529 8.13904 12.4529 7.43818C12.4529 6.73733 12.3148 6.04333 12.0466 5.39582C11.7784 4.74832 11.3853 4.15998 10.8897 3.6644C10.3941 3.16882 9.80578 2.7757 9.15827 2.5075C8.51077 2.23929 7.81677 2.10124 7.11592 2.10124C5.70047 2.10124 4.343 2.66353 3.34213 3.6644C2.34126 4.66527 1.77898 6.02274 1.77898 7.43818C1.77898 8.85363 2.34126 10.2111 3.34213 11.212C4.343 12.2128 5.70047 12.7751 7.11592 12.7751ZM7.11592 14.5541C9.00318 14.5541 10.8131 13.8044 12.1476 12.4699C13.4821 11.1354 14.2318 9.32544 14.2318 7.43818C14.2318 5.55092 13.4821 3.74096 12.1476 2.40647C10.8131 1.07198 9.00318 0.322266 7.11592 0.322266C5.22866 0.322266 3.4187 1.07198 2.0842 2.40647C0.749711 3.74096 0 5.55092 0 7.43818C0 9.32544 0.749711 11.1354 2.0842 12.4699C3.4187 13.8044 5.22866 14.5541 7.11592 14.5541Z" fill="#697586"/>
<path fill-rule="evenodd" clip-rule="evenodd" d="M10.9585 11.2541C11.1259 11.088 11.3524 10.9951 11.5883 10.9959C11.8242 10.9968 12.05 11.0912 12.2162 11.2586L15.752 14.8165C15.9136 14.9847 16.0027 15.2097 16 15.4429C15.9973 15.6762 15.9032 15.8991 15.7377 16.0635C15.5723 16.228 15.3489 16.3209 15.1157 16.3223C14.8824 16.3236 14.658 16.2333 14.4907 16.0707L10.9549 12.5128C10.7887 12.3455 10.6956 12.119 10.6963 11.8831C10.697 11.6473 10.7913 11.4213 10.9585 11.255V11.2541Z" fill="#697586"/>
</g>
<defs>
<clipPath id="clip0_960_156">
<rect width="16.0001" height="16" fill="white" transform="translate(0 0.322266)"/>
</clipPath>
</defs>
</svg>
