<svg width="38" height="38" viewBox="0 0 38 38" fill="none" xmlns="http://www.w3.org/2000/svg">
<path d="M19 21.25C20.2426 21.25 21.25 20.2426 21.25 19C21.25 17.7574 20.2426 16.75 19 16.75C17.7574 16.75 16.75 17.7574 16.75 
19C16.75 20.2426 17.7574 21.25 19 21.25Z" stroke="currentColor" stroke-width="1.5" stroke-linecap="round" stroke-linejoin="round"/>
<path d="M24.0455 21.0455C23.9547 21.2511 23.9276 21.4792 23.9677 21.7004C24.0078 21.9216 24.1133 22.1257 24.2705 22.2864L24.3114 
22.3273C24.4382 22.4539 24.5387 22.6043 24.6074 22.7699C24.676 22.9354 24.7113 23.1128 24.7113 23.292C24.7113 23.4712 24.676 23.6487 
24.6074 23.8142C24.5387 23.9798 24.4382 24.1302 24.3114 24.2568C24.1847 24.3836 24.0343 24.4842 23.8688 24.5528C23.7032 24.6214 23.5258 
24.6568 23.3466 24.6568C23.1674 24.6568 22.9899 24.6214 22.8244 24.5528C22.6589 24.4842 22.5085 24.3836 22.3818 24.2568L22.3409 24.2159C22.1802 
24.0587 21.9761 23.9533 21.7549 23.9132C21.5338 23.8731 21.3056 23.9001 21.1 23.9909C20.8983 24.0773 20.7264 24.2208 20.6052 24.4038C20.4841 
24.5867 20.4191 24.8011 20.4182 25.0205V25.1364C20.4182 25.498 20.2745 25.8449 20.0188 26.1006C19.7631 26.3563 19.4162 26.5 19.0545 26.5C18.6929 
26.5 18.346 26.3563 18.0903 26.1006C17.8346 25.8449 17.6909 25.498 17.6909 25.1364V25.075C17.6856 24.8493 17.6126 24.6305 17.4813 24.4468C17.3499 
24.2632 17.1664 24.1234 16.9545 24.0455C16.7489 23.9547 16.5208 23.9276 16.2996 23.9677C16.0784 24.0078 15.8743 24.1133 15.7136 24.2705L15.6727 
24.3114C15.5461 24.4382 15.3957 24.5387 15.2301 24.6074C15.0646 24.676 14.8872 24.7113 14.708 24.7113C14.5288 24.7113 14.3513 24.676 14.1858 
24.6074C14.0202 24.5387 13.8698 24.4382 13.7432 24.3114C13.6164 24.1847 13.5158 24.0343 13.4472 23.8688C13.3786 23.7032 13.3432 23.5258 13.3432 
23.3466C13.3432 23.1674 13.3786 22.9899 13.4472 22.8244C13.5158 22.6589 13.6164 22.5085 13.7432 22.3818L13.7841 22.3409C13.9413 22.1802 14.0467 
21.9761 14.0868 21.7549C14.1269 21.5338 14.0999 21.3056 14.0091 21.1C13.9227 20.8983 13.7792 20.7264 13.5962 20.6052C13.4133 20.4841 13.1989 
20.4191 12.9795 20.4182H12.8636C12.502 20.4182 12.1551 20.2745 11.8994 20.0188C11.6437 19.7631 11.5 19.4162 11.5 19.0545C11.5 18.6929 11.6437 
18.346 11.8994 18.0903C12.1551 17.8346 12.502 17.6909 12.8636 17.6909H12.925C13.1507 17.6856 13.3695 17.6126 13.5532 17.4813C13.7368 17.3499 13.8766 
17.1664 13.9545 16.9545C14.0453 16.7489 14.0724 16.5208 14.0323 16.2996C13.9922 16.0784 13.8867 15.8743 13.7295 15.7136L13.6886 15.6727C13.5619 
15.5461 13.4613 15.3957 13.3926 15.2301C13.324 15.0646 13.2887 14.8872 13.2887 14.708C13.2887 14.5288 13.324 14.3513 13.3926 14.1858C13.4613 
14.0202 13.5619 13.8698 13.6886 13.7432C13.8153 13.6164 13.9657 13.5158 14.1312 13.4472C14.2968 13.3786 14.4742 13.3432 14.6534 13.3432C14.8326 
13.3432 15.0101 13.3786 15.1756 13.4472C15.3411 13.5158 15.4915 13.6164 15.6182 13.7432L15.6591 13.7841C15.8198 13.9413 16.0239 14.0467 16.2451 
14.0868C16.4662 14.1269 16.6944 14.0999 16.9 14.0091H16.9545C17.1562 13.9227 17.3282 13.7792 17.4493 13.5962C17.5705 13.4133 17.6355 13.1989 
17.6364 12.9795V12.8636C17.6364 12.502 17.78 12.1551 18.0358 11.8994C18.2915 11.6437 18.6383 11.5 19 11.5C19.3617 11.5 19.7085 11.6437 19.9642 
11.8994C20.22 12.1551 20.3636 12.502 20.3636 12.8636V12.925C20.3645 13.1444 20.4295 13.3588 20.5507 13.5417C20.6718 13.7246 20.8438 13.8681 
21.0455 13.9545C21.2511 14.0453 21.4792 14.0724 21.7004 14.0323C21.9216 13.9922 22.1257 13.8867 22.2864 13.7295L22.3273 13.6886C22.4539 13.5619 
22.6043 13.4613 22.7699 13.3926C22.9354 13.324 23.1128 13.2887 23.292 13.2887C23.4712 13.2887 23.6487 13.324 23.8142 13.3926C23.9798 13.4613 
24.1302 13.5619 24.2568 13.6886C24.3836 13.8153 24.4842 13.9657 24.5528 14.1312C24.6214 14.2968 24.6568 14.4742 24.6568 14.6534C24.6568 14.8326 
24.6214 15.0101 24.5528 15.1756C24.4842 15.3411 24.3836 15.4915 24.2568 15.6182L24.2159 15.6591C24.0587 15.8198 23.9533 16.0239 23.9132 
16.2451C23.8731 16.4662 23.9001 16.6944 23.9909 16.9V16.9545C24.0773 17.1562 24.2208 17.3282 24.4038 17.4493C24.5867 17.5705 24.8011 17.6355 
25.0205 17.6364H25.1364C25.498 17.6364 25.8449 17.78 26.1006 18.0358C26.3563 18.2915 26.5 18.6383 26.5 19C26.5 19.3617 26.3563 19.7085 26.1006 
19.9642C25.8449 20.22 25.498 20.3636 25.1364 20.3636H25.075C24.8556 20.3645 24.6412 20.4295 24.4583 20.5507C24.2754 20.6718 24.1319 20.8438 
24.0455 21.0455Z" stroke="currentColor" stroke-width="1.5" stroke-linecap="round" stroke-linejoin="round"/>
<path d="M23.9999 30.1667C26.3011 30.1667 28.1666 28.3012 28.1666 26C28.1666 23.6988 26.3011 21.8333 23.9999 21.8333C21.6987 21.8333 19.8333 
23.6988 19.8333 26C19.8333 28.3012 21.6987 30.1667 23.9999 30.1667Z" fill="none"/>
<path d="M22.9583 24.7356C22.9583 24.5367 22.9583 24.4373 22.9998 24.3817C23.036 24.3334 23.0915 24.3031 23.1517 24.2988C23.2209 24.2939 23.3046 
24.3476 23.4718 24.4552L25.4388 25.7196C25.5839 25.8129 25.6565 25.8596 25.6816 25.9189C25.7035 25.9708 25.7035 26.0293 25.6816 26.0811C25.6565 
26.1404 25.5839 26.1871 25.4388 26.2804L23.4718 27.5448C23.3046 27.6524 23.2209 27.7062 23.1517 27.7012C23.0915 27.6969 23.036 27.6666 22.9998 
27.6183C22.9583 27.5628 22.9583 27.4633 22.9583 27.2644V24.7356Z" fill="none"/>
<path d="M23.9999 30.1667C26.3011 30.1667 28.1666 28.3012 28.1666 26C28.1666 23.6988 26.3011 21.8333 23.9999 21.8333C21.6987 21.8333 19.8333 
23.6988 19.8333 26C19.8333 28.3012 21.6987 30.1667 23.9999 30.1667Z" stroke="currentColor" stroke-width="1.5" stroke-linecap="round" stroke-linejoin="round"/>
<path d="M22.9583 24.7356C22.9583 24.5367 22.9583 24.4373 22.9998 24.3817C23.036 24.3334 23.0915 24.3031 23.1517 24.2988C23.2209 24.2939 
23.3046 24.3476 23.4718 24.4552L25.4388 25.7196C25.5839 25.8129 25.6565 25.8596 25.6816 25.9189C25.7035 25.9708 25.7035 26.0293 25.6816 
26.0811C25.6565 26.1404 25.5839 26.1871 25.4388 26.2804L23.4718 27.5448C23.3046 27.6524 23.2209 27.7062 23.1517 27.7012C23.0915 27.6969 
23.036 27.6666 22.9998 27.6183C22.9583 27.5628 22.9583 27.4633 22.9583 27.2644V24.7356Z" stroke="currentColor" stroke-width="1.5" stroke-linecap="round" stroke-linejoin="round"/>
</svg>
