<svg width="18" height="26" viewBox="0 0 18 26" fill="none" xmlns="http://www.w3.org/2000/svg">
<path d="M14.0326 6.1575C13.9629 6.08721 13.8799 6.03141 13.7885 5.99333C13.6971 5.95526 13.5991 5.93565 13.5001 5.93565C13.4011 5.93565 13.3031 5.95526 13.2117 5.99333C13.1203 6.03141 13.0373 6.08721 12.9676 6.1575L9.53261 9.5925C9.46288 9.6628 9.37993 9.71859 9.28854 9.75667C9.19714 9.79475 9.09911 9.81435 9.00011 9.81435C8.9011 9.81435 8.80307 9.79475 8.71167 9.75667C8.62028 9.71859 8.53733 9.6628 8.46761 9.5925L5.03261 6.1575C4.96288 6.08721 4.87993 6.03141 4.78854 5.99333C4.69714 5.95526 4.59912 5.93565 4.50011 5.93565C4.4011 5.93565 4.30307 5.95526 4.21167 5.99333C4.12028 6.03141 4.03733 6.08721 3.96761 6.1575C3.82792 6.29802 3.74951 6.48811 3.74951 6.68625C3.74951 6.88439 3.82792 7.07448 3.96761 7.215L7.41011 10.6575C7.83198 11.0789 8.40385 11.3155 9.00011 11.3155C9.59636 11.3155 10.1682 11.0789 10.5901 10.6575L14.0326 7.215C14.1723 7.07448 14.2507 6.88439 14.2507 6.68625C14.2507 6.48811 14.1723 6.29802 14.0326 6.1575Z" fill="#9B9B9B"/>
<path d="M14.0326 14.1575C13.9629 14.0872 13.8799 14.0314 13.7885 13.9933C13.6971 13.9553 13.5991 13.9357 13.5001 13.9357C13.4011 13.9357 13.3031 13.9553 13.2117 13.9933C13.1203 14.0314 13.0373 14.0872 12.9676 14.1575L9.53261 17.5925C9.46288 17.6628 9.37993 17.7186 9.28854 17.7567C9.19714 17.7947 9.09911 17.8144 9.00011 17.8144C8.9011 17.8144 8.80307 17.7947 8.71167 17.7567C8.62028 17.7186 8.53733 17.6628 8.46761 17.5925L5.03261 14.1575C4.96288 14.0872 4.87993 14.0314 4.78854 13.9933C4.69714 13.9553 4.59912 13.9357 4.50011 13.9357C4.4011 13.9357 4.30307 13.9553 4.21167 13.9933C4.12028 14.0314 4.03733 14.0872 3.96761 14.1575C3.82792 14.298 3.74951 14.4881 3.74951 14.6863C3.74951 14.8844 3.82792 15.0745 3.96761 15.215L7.41011 18.6575C7.83198 19.0789 8.40385 19.3155 9.00011 19.3155C9.59636 19.3155 10.1682 19.0789 10.5901 18.6575L14.0326 15.215C14.1723 15.0745 14.2507 14.8844 14.2507 14.6863C14.2507 14.4881 14.1723 14.298 14.0326 14.1575Z" fill="#9B9B9B"/>
</svg>
