<svg width="38" height="38" viewBox="0 0 38 38" fill="none" xmlns="http://www.w3.org/2000/svg">
<g clip-path="url(#clip0_132_204)">
<path d="M13.75 21.25C13.0511 21.25 12.7016 21.25 12.426 21.1358C12.0584 20.9836 11.7664 20.6916 11.6142 
20.324C11.5 20.0484 11.5 19.6989 11.5 19V13.9C11.5 13.0599 11.5 12.6399 11.6635 12.319C11.8073 12.0368 12.0368 
11.8073 12.319 11.6635C12.6399 11.5 13.0599 11.5 13.9 11.5H19C19.6989 11.5 20.0484 11.5 20.324 11.6142C20.6916 
11.7664 20.9836 12.0584 21.1358 12.426C21.25 12.7016 21.25 13.0511 21.25 13.75M19.15 26.5H24.1C24.9401 26.5 25.3601 
26.5 25.681 26.3365C25.9632 26.1927 26.1927 25.9632 26.3365 25.681C26.5 25.3601 26.5 24.9401 26.5 24.1V19.15C26.5 
18.3099 26.5 17.8899 26.3365 17.569C26.1927 17.2868 25.9632 17.0573 25.681 16.9135C25.3601 16.75 24.9401 16.75 24.1 
16.75H19.15C18.3099 16.75 17.8899 16.75 17.569 16.9135C17.2868 17.0573 17.0573 17.2868 16.9135 17.569C16.75 17.8899 
16.75 18.3099 16.75 19.15V24.1C16.75 24.9401 16.75 25.3601 16.9135 25.681C17.0573 25.9632 17.2868 26.1927 17.569 
26.3365C17.8899 26.5 18.3099 26.5 19.15 26.5Z" stroke="currentColor" stroke-width="2" stroke-linecap="round" stroke-linejoin="round"/>
</g>
<defs>
<clipPath id="clip0_132_204">
<rect width="18" height="18" fill="white" transform="translate(10 10)"/>
</clipPath>
</defs>
</svg>
