<svg width="21" height="26" viewBox="0 0 21 26" fill="none" xmlns="http://www.w3.org/2000/svg">
<path d="M20.0303 20.3526C20.3232 20.0597 20.3232 19.5848 20.0303 19.2919L15.2574 14.519C14.9645 14.2261 14.4896 14.2261 14.1967 14.519C13.9038 14.8119 13.9038 15.2867 14.1967 15.5796L18.4393 19.8223L14.1967 24.0649C13.9038 24.3578 13.9038 24.8327 14.1967 25.1256C14.4896 25.4185 14.9645 25.4185 15.2574 25.1256L20.0303 20.3526ZM0.25 0.322266V13.8223H1.75V0.322266H0.25ZM7 20.5723H19.5V19.0723H7V20.5723ZM0.25 13.8223C0.25 17.5502 3.27208 20.5723 7 20.5723V19.0723C4.1005 19.0723 1.75 16.7218 1.75 13.8223H0.25Z" fill="#B3B3B3"/>
</svg>
